<svg xmlns="http://www.w3.org/2000/svg" width="117.136" height="73.274" viewBox="0 0 117.136 73.274">
  <g id="Group_64179" data-name="Group 64179" transform="translate(-723.989 -300.655)" opacity="0.7">
    <g id="Group_64177" data-name="Group 64177" transform="translate(784.734 300.655)">
      <path id="path356" d="M570.616-458.1c12.123,5.678,5.179,20.653-1.86,27.073-7.671,7-20.334,12.146-30.543,8.246a.708.708,0,0,0-.778.146,1.064,1.064,0,0,0-.18-.117c-4.354-3.236-7.479-7.268-7.727-13.041-.324-7.5,5.332-14.089,11.107-18.1,7.846-5.447,21.082-8.377,29.98-4.21Zm9.328,7.16a.891.891,0,0,0-1,.7,13.942,13.942,0,0,0-.861-2.858A14.358,14.358,0,0,1,579.944-450.939Zm2.015,5.977a.991.991,0,0,0-1.091-.857c-.076.009-.144.016-.223.022.058-1.219.088-2.438.171-3.661a11,11,0,0,1,1.142,4.5Zm-.13,2.6c-.067.421-.191.827-.3,1.246a1.035,1.035,0,0,0-.436-.376,17.441,17.441,0,0,0,.87-3.2,13.682,13.682,0,0,1-.137,2.328Zm-4.34,2.957a22.308,22.308,0,0,0,1.383-4.56.971.971,0,0,0,.893.36A8.027,8.027,0,0,1,577.488-439.4Zm.49,1.817c-2.489,3.816-5.957,6.91-9.182,10.151a.77.77,0,0,0-.229.533,81.6,81.6,0,0,1-9.854,5.174.926.926,0,0,0-.5,1.208,28.083,28.083,0,0,1-12.82.983.734.734,0,0,0-.846.792,14.832,14.832,0,0,1-4.145-1.644c10.634,3,22.917-2.851,30.633-9.865a26.473,26.473,0,0,0,6.036-8.231A.962.962,0,0,0,577.978-437.584Zm-2.336,6.324a.892.892,0,0,0-.243-.128,35.175,35.175,0,0,0,4.794-6.126A26.734,26.734,0,0,1,575.642-431.26Zm-38.3-22.884c-11.856,9.027-13.553,25.683.07,33.516,10.342,9.213,27.359,1.914,36.45-5.944,5.006-4.322,9.564-9.951,10.268-16.749.688-6.571-3.54-12.092-9.375-14.419a16.163,16.163,0,0,0-2.359-1.844c-10.014-6.317-26.486-1.079-35.054,5.44" transform="translate(-527.811 462.435)" fill="#4c3935"/>
      <path id="path358" d="M567.11-454.968a.866.866,0,0,0-.872.5c-.142.3-.292.571-.445.846-4.324,3.922-9.587,5.291-15.469,6.6a61.128,61.128,0,0,0-9.31,2.991,24.3,24.3,0,0,0-7.344,2.267.788.788,0,0,0-.382.963c-.184.081-.371.16-.558.238-.866.36-.331,1.828.564,1.549,2.053-.639,4.064-1.387,6.07-2.152,10.034-1.347,22.683-.852,27.417-10.223a12,12,0,0,0,2.487-3.6c.407-.911-.888-1.394-1.442-.733-.229.277-.472.5-.715.758" transform="translate(-524.737 466.83)" fill="#4c3935"/>
    </g>
    <g id="Group_64178" data-name="Group 64178" transform="translate(723.989 328.87)">
      <path id="path620" d="M526.1-404.472a16.114,16.114,0,0,0,4.916-2.505,11.24,11.24,0,0,0,.949-.821,7.988,7.988,0,0,1-5.651,3.317.994.994,0,0,0-.214.009Zm-15.287-4.014a32.215,32.215,0,0,1-9.186-9.139c-3.74-5.791-5.251-16.7-.45-22.243a12.611,12.611,0,0,1,4.788-1.763c9.636-1.606,18.786,5.073,23.392,13.079a1.074,1.074,0,0,0-.555,1.529,30.9,30.9,0,0,1,4.07,9.652c-.153,5.262-2.982,9.789-9.593,11.057A18.548,18.548,0,0,1,510.817-408.486Zm13.506,6.971c3.814-.007,7.473-1.178,9.9-4.533,2.89-3.994,2.7-8.856,1.169-13.38a27.45,27.45,0,0,0-1.527-6.245,32.371,32.371,0,0,0-18.132-18.719c-5.244-2.073-12.229-1.974-16.268,2.361-20.441,8.442,4.183,47.676,24.86,40.516" transform="translate(-491.795 445.706)" fill="#4c3935"/>
      <path id="path622" d="M524.159-417.134a6.083,6.083,0,0,1-.879.016,1.3,1.3,0,0,0-.551-1.106c-4.938-3.528-7.864-9.5-11.093-14.453a1.1,1.1,0,0,0-1.707-.207c-.274-.31-.562-.607-.848-.909a15.909,15.909,0,0,0-2.989-2.743,40.7,40.7,0,0,0-7.938-4.954c-1.14-.549-1.911,1.181-.814,1.768.832.447,1.646.924,2.453,1.419a1.1,1.1,0,0,0,.216,1.86,26.558,26.558,0,0,1,8.563,6.44c1.6,2.465,2.87,5.289,4.473,7.92a24.343,24.343,0,0,1,.731,2.89,1.244,1.244,0,0,0,2.04.7,15.969,15.969,0,0,0,2.406,2.013,1.242,1.242,0,0,0,.864,1.23,10.57,10.57,0,0,0,5.622.646c1.671-.218,1.079-2.7-.549-2.532" transform="translate(-488.351 448.527)" fill="#4c3935"/>
    </g>
  </g>
</svg>
